<?xml version="1.0" encoding="UTF-8" standalone="no"?>
<svg
   xmlns:dc="http://purl.org/dc/elements/1.1/"
   xmlns:cc="http://creativecommons.org/ns#"
   xmlns:rdf="http://www.w3.org/1999/02/22-rdf-syntax-ns#"
   xmlns:svg="http://www.w3.org/2000/svg"
   xmlns="http://www.w3.org/2000/svg"
   xmlns:sodipodi="http://sodipodi.sourceforge.net/DTD/sodipodi-0.dtd"
   xmlns:inkscape="http://www.inkscape.org/namespaces/inkscape"
   width="793.700787402"
   height="1122.51968504"
   version="1.1"
   id="svg4658"
   sodipodi:docname="HPA_One3.svg"
   inkscape:version="0.92.1 r15371">
  <metadata
     id="metadata4662">
    <rdf:RDF>
      <cc:Work
         rdf:about="">
        <dc:format>image/svg+xml</dc:format>
        <dc:type
           rdf:resource="http://purl.org/dc/dcmitype/StillImage" />
      </cc:Work>
    </rdf:RDF>
  </metadata>
  <sodipodi:namedview
     pagecolor="#ffffff"
     bordercolor="#666666"
     borderopacity="1"
     objecttolerance="10"
     gridtolerance="10"
     guidetolerance="10"
     inkscape:pageopacity="0"
     inkscape:pageshadow="2"
     inkscape:window-width="2560"
     inkscape:window-height="1406"
     id="namedview4660"
     showgrid="false"
     inkscape:zoom="76.115484"
     inkscape:cx="156.9197"
     inkscape:cy="44.886383"
     inkscape:window-x="-11"
     inkscape:window-y="-11"
     inkscape:window-maximized="1"
     inkscape:current-layer="g4656" />
  <desc
     id="desc4606">C:\Users\suzuki-ryota\Desktop\HPA_one.dxf - scale = 1.000000, origin = (0.000000, 0.000000), method = manual</desc>
  <defs
     id="defs4620">
    <marker
       id="DistanceX"
       orient="auto"
       refX="0.0"
       refY="0.0"
       style="overflow:visible">
      <path
         d="M 3,-3 L -3,3 M 0,-5 L  0,5"
         style="stroke:#000000; stroke-width:0.5"
         id="path4608" />
    </marker>
    <pattern
       height="8"
       id="Hatch"
       patternUnits="userSpaceOnUse"
       width="8"
       x="0"
       y="0">
      <path
         d="M8 4 l-4,4"
         linecap="square"
         stroke="#000000"
         stroke-width="0.25"
         id="path4611" />
      <path
         d="M6 2 l-4,4"
         linecap="square"
         stroke="#000000"
         stroke-width="0.25"
         id="path4613" />
      <path
         d="M4 0 l-4,4"
         linecap="square"
         stroke="#000000"
         stroke-width="0.25"
         id="path4615" />
    </pattern>
    <symbol
       id="*MODEL_SPACE" />
    <symbol
       id="*PAPER_SPACE" />
  </defs>
  <g
     inkscape:groupmode="layer"
     inkscape:label="0"
     id="g4656">
    <path
       d="m 44.01575,1112.5197 a 34.01575,34.01575 0 0 1 0,-68.0315 h 147.40158 a 34.01575,34.01575 0 0 1 0,68.0315 z"
       style="fill:none;stroke:#000000;stroke-width:0.1;stroke-miterlimit:4;stroke-dasharray:none"
       id="path4622"
       inkscape:connector-curvature="0" />
    <path
       d="m 218.25197,1078.504 a 10.393701,10.393701 0 1 0 -20.7874,0 10.393701,10.393701 0 1 0 20.7874,0 z"
       style="fill:none;stroke:#000000;stroke-width:0.1;stroke-miterlimit:4;stroke-dasharray:none"
       id="path4626"
       inkscape:connector-curvature="0" />
    <path
       d="m 37.968506,1078.504 a 10.393701,10.393701 0 1 0 -20.787402,0 10.393701,10.393701 0 1 0 20.787402,0 z"
       style="fill:none;stroke:#000000;stroke-width:0.1;stroke-miterlimit:4;stroke-dasharray:none"
       id="path4628"
       inkscape:connector-curvature="0" />
    <path
       d="m 32.866144,1078.504 a 5.291339,5.291339 0 1 0 -10.582678,0 5.291339,5.291339 0 1 0 10.582678,0 z"
       style="fill:none;stroke:#000000;stroke-width:0.1;stroke-miterlimit:4;stroke-dasharray:none"
       id="path4630"
       inkscape:connector-curvature="0" />
    <path
       d="m 213.14961,1078.504 a 5.29134,5.29134 0 1 0 -10.58268,0 5.29134,5.29134 0 1 0 10.58268,0 z"
       style="fill:none;stroke:#000000;stroke-width:0.1;stroke-miterlimit:4;stroke-dasharray:none"
       id="path4632"
       inkscape:connector-curvature="0" />
    <path
       d="m 64.426472,1083.6065 a 11.527559,11.527559 0 1 0 -23.055118,0 11.527559,11.527559 0 1 0 23.055118,0 z"
       style="fill:none;stroke:#000000;stroke-width:0.1;stroke-miterlimit:4;stroke-dasharray:none"
       id="path4634"
       inkscape:connector-curvature="0" />
    <path
       d="m 117.3398,1083.6058 a 11.527559,11.527559 0 1 0 -23.055119,0 11.52756,11.52756 0 1 0 23.055119,0 z"
       style="fill:none;stroke:#000000;stroke-width:0.1;stroke-miterlimit:4;stroke-dasharray:none"
       id="path4636"
       inkscape:connector-curvature="0" />
    <path
       d="m 191.04059,1078.5034 a 13.417325,13.417325 0 1 0 -26.83465,0 13.417325,13.417325 0 1 0 26.83465,0 z"
       style="fill:none;stroke:#000000;stroke-width:0.1;stroke-miterlimit:4;stroke-dasharray:none"
       id="path4638"
       inkscape:connector-curvature="0" />
    <path
       d="m 157.21382,1074.5349 h -3.40158"
       style="fill:none;stroke:#000000;stroke-width:0.1;stroke-miterlimit:4;stroke-dasharray:none"
       id="path4644"
       inkscape:connector-curvature="0" />
    <path
       d="m 153.81224,1074.5349 v 7.937"
       style="fill:none;stroke:#000000;stroke-width:0.1;stroke-miterlimit:4;stroke-dasharray:none"
       id="path4646"
       inkscape:connector-curvature="0" />
    <path
       d="m 153.81224,1082.4719 h 3.40158"
       style="fill:none;stroke:#000000;stroke-width:0.1;stroke-miterlimit:4;stroke-dasharray:none"
       id="path4648"
       inkscape:connector-curvature="0" />
    <path
       d="m 157.21382,1082.4719 v -7.937"
       style="fill:none;stroke:#000000;stroke-width:0.1;stroke-miterlimit:4;stroke-dasharray:none"
       id="path4650"
       inkscape:connector-curvature="0" />
  </g>
</svg>
